HIERARCHY
ROOT Hips
{
 OFFSET 0.000000 0.000000 0.000000
 CHANNELS 6 Xposition Yposition Zposition Yrotation Xrotation Zrotation
 JOINT Chest
 {
  OFFSET 0.000000 9.588913 -0.003946
  CHANNELS 3 Yrotation Xrotation Zrotation
  JOINT Chest2
  {
   OFFSET 0.000000 9.541882 0.008053
   CHANNELS 3 Yrotation Xrotation Zrotation
   JOINT Chest3
   {
    OFFSET 0.000000 9.501360 0.000000
    CHANNELS 3 Yrotation Xrotation Zrotation
    JOINT Chest4
    {
     OFFSET 0.000000 9.491660 0.000000
     CHANNELS 3 Yrotation Xrotation Zrotation
     JOINT Neck
     {
      OFFSET 0.000000 14.331917 0.000000
      CHANNELS 3 Yrotation Xrotation Zrotation
      JOINT Head
      {
       OFFSET 0.000000 8.884799 0.017034
       CHANNELS 3 Yrotation Xrotation Zrotation
       End Site
       {
        OFFSET 0.000000 16.896195 0.008993
       }
      }
     }
     JOINT RightCollar
     {
      OFFSET -2.923010 9.499495 0.000000
      CHANNELS 3 Yrotation Xrotation Zrotation
      JOINT RightShoulder
      {
       OFFSET -13.795216 0.000000 0.000000
       CHANNELS 3 Yrotation Xrotation Zrotation
       JOINT RightElbow
       {
        OFFSET -30.272209 0.000000 0.000000
        CHANNELS 3 Yrotation Xrotation Zrotation
        JOINT RightWrist
        {
         OFFSET -24.478199 0.000000 0.000000
         CHANNELS 3 Yrotation Xrotation Zrotation
         End Site
         {
          OFFSET -18.090752 0.000000 0.000000
         }
        }
       }
      }
     }
     JOINT LeftCollar
     {
      OFFSET 2.923010 9.499495 0.000000
      CHANNELS 3 Yrotation Xrotation Zrotation
      JOINT LeftShoulder
      {
       OFFSET 13.795216 0.000000 0.000000
       CHANNELS 3 Yrotation Xrotation Zrotation
       JOINT LeftElbow
       {
        OFFSET 30.272209 0.000000 0.000000
        CHANNELS 3 Yrotation Xrotation Zrotation
        JOINT LeftWrist
        {
         OFFSET 24.478199 0.000000 0.000000
         CHANNELS 3 Yrotation Xrotation Zrotation
         End Site
         {
          OFFSET 18.090752 0.000000 0.000000
         }
        }
       }
      }
     }
    }
   }
  }
 }
 JOINT RightHip
 {
  OFFSET -7.826875 0.019532 0.001973
  CHANNELS 3 Yrotation Xrotation Zrotation
  JOINT RightKnee
  {
   OFFSET 0.000000 -40.546152 -0.001885
   CHANNELS 3 Yrotation Xrotation Zrotation
   JOINT RightAnkle
   {
    OFFSET 0.000000 -39.417092 -0.003189
    CHANNELS 3 Yrotation Xrotation Zrotation
    JOINT RightToe
    {
     OFFSET 0.000000 -7.579396 17.243563
     CHANNELS 3 Yrotation Xrotation Zrotation
     End Site
     {
      OFFSET 0.000000 -1.500329 6.694466
     }
    }
   }
  }
 }
 JOINT LeftHip
 {
  OFFSET 7.826875 0.019532 0.001973
  CHANNELS 3 Yrotation Xrotation Zrotation
  JOINT LeftKnee
  {
   OFFSET 0.000000 -40.546152 -0.001885
   CHANNELS 3 Yrotation Xrotation Zrotation
   JOINT LeftAnkle
   {
    OFFSET 0.000000 -39.417092 -0.003189
    CHANNELS 3 Yrotation Xrotation Zrotation
    JOINT LeftToe
    {
     OFFSET 0.000000 -7.579396 17.243563
     CHANNELS 3 Yrotation Xrotation Zrotation
     End Site
     {
      OFFSET 0.000000 -1.500329 6.694466
     }
    }
   }
  }
 }
}
MOTION
Frames: 7
Frame Time: 0.008333
0.000000 87.345680 0.000000 0.000000 -5.767889 0.000000 0.000000 11.653876 0.000000 0.000000 -5.885988 0.000000 0.000000 -0.000000 0.000000 0.000000 -0.000000 0.000000 0.000000 12.528808 0.000000 0.000000 0.711711 0.000000 0.000000 -0.000000 0.000000 0.000000 -0.000000 0.000000 2.309063 -0.000000 0.000000 -2.309063 -0.000000 -0.000000 0.000000 -0.000000 0.000000 0.000000 0.000000 0.000000 -2.309063 0.000000 0.000000 2.309063 -0.000000 0.000000 0.000000 8.520374 0.000000 0.000000 1.905768 0.000000 -0.000000 -4.658254 0.000000 0.000000 -0.000000 0.000000 0.000000 8.520374 0.000000 0.000000 1.905768 0.000000 -0.000000 -4.658254 0.000000 0.000000 -0.000000 0.000000
-54.458809 89.553654 11.224492 97.047286 -10.752303 3.292858 -0.269568 4.766465 0.952407 -0.155233 2.767921 0.676450 -0.188983 3.460175 0.844636 -0.155234 2.767926 0.676451 -2.167092 23.062695 -5.919192 -1.001326 -0.774093 -5.946244 0.052364 2.907515 -5.433950 -9.845369 1.499185 84.562992 -5.075353 1.493818 -3.165204 0.851674 -2.632107 1.900865 2.133565 0.403620 -2.472410 1.456344 -3.357905 -85.998744 -24.078736 10.250958 -25.991742 12.504119 9.659078 -7.359071 -5.563659 9.053612 -6.004170 2.621240 2.574212 0.701760 -3.471927 -2.266706 1.056134 -0.004242 -0.574706 0.046852 16.005592 -1.806696 8.449612 5.094462 10.936798 5.720086 15.738876 3.518359 -0.824279 -0.031796 -0.519887 0.107931
-54.477768 89.574354 11.245963 97.144881 -10.747204 3.369549 -0.208805 4.771159 0.978726 -0.120031 2.771084 0.686822 -0.144882 3.464066 0.857871 -0.120031 2.771088 0.686823 -1.514871 23.177608 -6.048241 -0.263197 -0.625502 -6.242107 0.024246 2.971267 -5.387746 -9.720425 1.580114 84.613312 -5.374212 2.004462 -3.315572 0.529399 -2.427541 1.958611 2.183548 0.492762 -2.413072 1.608226 -3.353369 -86.107318 -24.032139 10.139013 -25.788093 12.232217 9.500662 -7.207527 -5.674688 9.060051 -6.084739 2.604433 2.512568 0.700639 -3.448222 -2.228085 1.025481 0.001917 -0.565191 0.048405 16.103205 -1.798654 8.353287 5.287488 10.785761 5.686829 15.873596 3.815659 -1.026100 -0.015249 -0.564236 0.370700
-54.499582 89.597350 11.271187 97.261998 -10.747642 3.454615 -0.147922 4.781391 1.001076 -0.086060 2.775585 0.695393 -0.102334 3.469631 0.868845 -0.086061 2.775589 0.695394 -0.885939 23.280499 -6.173434 0.449784 -0.485182 -6.530378 -0.001211 3.034870 -5.336601 -9.596713 1.648872 84.665485 -5.649231 2.530203 -3.451284 0.202297 -2.228805 2.024565 2.232392 0.582228 -2.354003 1.763248 -3.345293 -86.219284 -23.986372 10.025716 -25.556047 11.967727 9.365457 -7.067067 -5.794848 9.068609 -6.170062 2.596227 2.454407 0.693179 -3.444150 -2.189224 0.997174 0.006240 -0.555834 0.049430 16.220938 -1.777448 8.245786 5.500518 10.610098 5.651821 15.995257 4.139083 -1.228458 -0.005048 -0.607578 0.594744
-54.524749 89.621047 11.299636 97.405397 -10.748098 3.541220 -0.089994 4.792827 1.022427 -0.053911 2.780975 0.702945 -0.062069 3.476308 0.878532 -0.053912 2.780979 0.702946 -0.285066 23.373713 -6.295004 1.132882 -0.351152 -6.810055 -0.023223 3.097401 -5.282762 -9.476298 1.706076 84.722247 -5.896599 3.064956 -3.570501 -0.122696 -2.044896 2.098230 2.281277 0.670870 -2.299390 1.914654 -3.333221 -86.329171 -23.944293 9.913152 -25.296658 11.713707 9.251431 -6.938334 -5.923498 9.071192 -6.252682 2.587333 2.406901 0.679365 -3.459538 -2.154408 0.970836 0.007783 -0.546106 0.050099 16.361939 -1.751360 8.131758 5.726681 10.408667 5.618228 16.076731 4.479498 -1.426947 0.000023 -0.646404 0.779980
-54.553005 89.644106 11.330240 97.574300 -10.747013 3.627088 -0.035190 4.804522 1.043684 -0.023513 2.786894 0.709820 -0.023996 3.483648 0.887360 -0.023514 2.786898 0.709821 0.286204 23.458001 -6.410946 1.784203 -0.223537 -7.078302 -0.042448 3.159640 -5.230397 -9.358728 1.751251 84.789830 -6.114390 3.591815 -3.672789 -0.438747 -1.872500 2.178141 2.332392 0.760407 -2.247239 2.059972 -3.321149 -86.437089 -23.904618 9.804860 -25.010005 11.472525 9.153981 -6.818659 -6.061783 9.065079 -6.334096 2.568957 2.372782 0.664109 -3.481489 -2.127278 0.944515 0.007735 -0.534844 0.050648 16.536689 -1.725666 8.013874 5.952394 10.186740 5.586495 16.103415 4.826578 -1.617603 0.001244 -0.679082 0.927504
-54.583211 89.665525 11.362344 97.763096 -10.747513 3.709670 0.019136 4.820531 1.067932 0.005310 2.793365 0.716149 0.012104 3.491681 0.895493 0.005309 2.793369 0.716149 0.828761 23.533095 -6.519948 2.404509 -0.103589 -7.333580 -0.059766 3.220822 -5.181195 -9.234832 1.786714 84.872617 -6.299859 4.087085 -3.758635 -0.737323 -1.708026 2.261406 2.385935 0.852407 -2.195754 2.201422 -3.311246 -86.543893 -23.868084 9.701603 -24.697030 11.246265 9.071693 -6.700813 -6.210511 9.055460 -6.415306 2.544488 2.348329 0.650582 -3.501993 -2.107292 0.917495 0.006955 -0.521800 0.051275 16.751904 -1.699891 7.896194 6.162460 9.950295 5.556211 16.082599 5.173036 -1.799633 0.006003 -0.704680 1.042429
